HIERARCHY
ROOT Hips
{
	OFFSET 8.91173 92.52490 -21.95620
	CHANNELS 6 Xposition Yposition Zposition Zrotation Xrotation Yrotation
	JOINT Spine
	{
		OFFSET 0.00000 14.09320 -1.51142
		CHANNELS 3 Zrotation Xrotation Yrotation
		JOINT Spine1
		{
			OFFSET 0.00000 8.69660 0.00000
			CHANNELS 3 Zrotation Xrotation Yrotation
			JOINT Spine2
			{
				OFFSET 0.00000 8.69660 0.00000
				CHANNELS 3 Zrotation Xrotation Yrotation
				JOINT Spine3
				{
					OFFSET 0.00000 8.69660 0.00000
					CHANNELS 3 Zrotation Xrotation Yrotation
					JOINT Neck
					{
						OFFSET 0.00000 11.18130 1.11813
						CHANNELS 3 Zrotation Xrotation Yrotation
						JOINT Neck1
						{
							OFFSET 0.00000 5.70631 0.00000
							CHANNELS 3 Zrotation Xrotation Yrotation
							JOINT Head
							{
								OFFSET 0.00000 5.70631 0.00000
								CHANNELS 3 Zrotation Xrotation Yrotation
								End site
								{
									OFFSET 0.00000 9.71257 0.00000
								}
							}
						}
					}
					JOINT RightShoulder
					{
						OFFSET 0.00000 7.98668 5.19711
						CHANNELS 3 Zrotation Xrotation Yrotation
						JOINT RightArm
						{
							OFFSET 0.00000 18.31580 0.00000
							CHANNELS 3 Zrotation Xrotation Yrotation
							JOINT RightForeArm
							{
								OFFSET 0.00000 28.87420 0.00000
								CHANNELS 3 Zrotation Xrotation Yrotation
								JOINT RightHand
								{
									OFFSET 0.00000 23.87720 0.00000
									CHANNELS 3 Zrotation Xrotation Yrotation
									JOINT RightHandThumb1
									{
										OFFSET -2.41094 4.67063 3.47303
										CHANNELS 3 Zrotation Xrotation Yrotation
										JOINT RightHandThumb2
										{
											OFFSET 0.00000 3.95207 0.00000
											CHANNELS 3 Zrotation Xrotation Yrotation
											JOINT RightHandThumb3
											{
												OFFSET 0.00000 2.15568 0.00000
												CHANNELS 3 Zrotation Xrotation Yrotation
												End site
												{
													OFFSET 0.00000 1.91616 0.00000
												}
											}
										}
									}
									JOINT RightHandIndex1
									{
										OFFSET 0.00000 12.45500 2.51496
										CHANNELS 3 Zrotation Xrotation Yrotation
										JOINT RightHandIndex2
										{
											OFFSET 0.00000 4.79039 0.00000
											CHANNELS 3 Zrotation Xrotation Yrotation
											JOINT RightHandIndex3
											{
												OFFSET 0.00000 2.63472 0.00000
												CHANNELS 3 Zrotation Xrotation Yrotation
												End site
												{
													OFFSET 0.00000 1.91616 0.00000
												}
											}
										}
									}
									JOINT RightHandMiddle1
									{
										OFFSET 0.00000 12.45500 -0.07984
										CHANNELS 3 Zrotation Xrotation Yrotation
										JOINT RightHandMiddle2
										{
											OFFSET 0.00000 5.38919 0.00000
											CHANNELS 3 Zrotation Xrotation Yrotation
											JOINT RightHandMiddle3
											{
												OFFSET 0.00000 3.11376 0.00000
												CHANNELS 3 Zrotation Xrotation Yrotation
												End site
												{
													OFFSET 0.00000 2.03592 0.00000
												}
											}
										}
									}
									JOINT RightHandRing1
									{
										OFFSET 0.00000 11.07780 -2.67464
										CHANNELS 3 Zrotation Xrotation Yrotation
										JOINT RightHandRing2
										{
											OFFSET 0.00000 4.91015 0.00000
											CHANNELS 3 Zrotation Xrotation Yrotation
											JOINT RightHandRing3
											{
												OFFSET 0.00000 3.11376 0.00000
												CHANNELS 3 Zrotation Xrotation Yrotation
												End site
												{
													OFFSET 0.00000 2.03592 0.00000
												}
											}
										}
									}
									JOINT RightHandPinky1
									{
										OFFSET 0.00000 9.70055 -5.26943
										CHANNELS 3 Zrotation Xrotation Yrotation
										JOINT RightHandPinky2
										{
											OFFSET 0.00000 3.95207 0.00000
											CHANNELS 3 Zrotation Xrotation Yrotation
											JOINT RightHandPinky3
											{
												OFFSET 0.00000 2.15568 0.00000
												CHANNELS 3 Zrotation Xrotation Yrotation
												End site
												{
													OFFSET 0.00000 1.91616 0.00000
												}
											}
										}
									}
								}
							}
						}
					}
					JOINT LeftShoulder
					{
						OFFSET 0.00000 7.98668 5.19711
						CHANNELS 3 Zrotation Xrotation Yrotation
						JOINT LeftArm
						{
							OFFSET 0.00000 18.31580 0.00000
							CHANNELS 3 Zrotation Xrotation Yrotation
							JOINT LeftForeArm
							{
								OFFSET 0.00000 28.87420 0.00000
								CHANNELS 3 Zrotation Xrotation Yrotation
								JOINT LeftHand
								{
									OFFSET 0.00000 23.87720 0.00000
									CHANNELS 3 Zrotation Xrotation Yrotation
									JOINT LeftHandThumb1
									{
										OFFSET 2.41094 4.67063 3.47303
										CHANNELS 3 Zrotation Xrotation Yrotation
										JOINT LeftHandThumb2
										{
											OFFSET 0.00000 3.95207 0.00000
											CHANNELS 3 Zrotation Xrotation Yrotation
											JOINT LeftHandThumb3
											{
												OFFSET 0.00000 2.15568 0.00000
												CHANNELS 3 Zrotation Xrotation Yrotation
												End site
												{
													OFFSET 0.00000 1.60000 0.00000
												}
											}
										}
									}
									JOINT LeftHandIndex1
									{
										OFFSET 0.00000 12.45500 2.51496
										CHANNELS 3 Zrotation Xrotation Yrotation
										JOINT LeftHandIndex2
										{
											OFFSET 0.00000 4.79039 0.00000
											CHANNELS 3 Zrotation Xrotation Yrotation
											JOINT LeftHandIndex3
											{
												OFFSET 0.00000 2.63472 0.00000
												CHANNELS 3 Zrotation Xrotation Yrotation
												End site
												{
													OFFSET 0.00000 1.91616 0.00000
												}
											}
										}
									}
									JOINT LeftHandMiddle1
									{
										OFFSET 0.00000 12.45500 -0.07984
										CHANNELS 3 Zrotation Xrotation Yrotation
										JOINT LeftHandMiddle2
										{
											OFFSET 0.00000 5.38919 0.00000
											CHANNELS 3 Zrotation Xrotation Yrotation
											JOINT LeftHandMiddle3
											{
												OFFSET 0.00000 3.11376 0.00000
												CHANNELS 3 Zrotation Xrotation Yrotation
												End site
												{
													OFFSET 0.00000 2.03592 0.00000
												}
											}
										}
									}
									JOINT LeftHandRing1
									{
										OFFSET 0.00000 11.07780 -2.67464
										CHANNELS 3 Zrotation Xrotation Yrotation
										JOINT LeftHandRing2
										{
											OFFSET 0.00000 4.91015 0.00000
											CHANNELS 3 Zrotation Xrotation Yrotation
											JOINT LeftHandRing3
											{
												OFFSET 0.00000 3.11376 0.00000
												CHANNELS 3 Zrotation Xrotation Yrotation
												End site
												{
													OFFSET 0.00000 2.03592 0.00000
												}
											}
										}
									}
									JOINT LeftHandPinky1
									{
										OFFSET 0.00000 9.70055 -5.26943
										CHANNELS 3 Zrotation Xrotation Yrotation
										JOINT LeftHandPinky2
										{
											OFFSET 0.00000 3.95207 0.00000
											CHANNELS 3 Zrotation Xrotation Yrotation
											JOINT LeftHandPinky3
											{
												OFFSET 0.00000 2.15568 0.00000
												CHANNELS 3 Zrotation Xrotation Yrotation
												End site
												{
													OFFSET 0.00000 1.91616 0.00000
												}
											}
										}
									}
								}
							}
						}
					}
				}
			}
		}
	}
	JOINT RightUpLeg
	{
		OFFSET -10.06560 0.00000 0.00000
		CHANNELS 3 Zrotation Xrotation Yrotation
		JOINT RightLeg
		{
			OFFSET 0.00000 -42.98740 0.00000
			CHANNELS 3 Zrotation Xrotation Yrotation
			JOINT RightFoot
			{
				OFFSET 0.00000 -44.62500 0.00000
				CHANNELS 3 Zrotation Xrotation Yrotation
				JOINT RightForeFoot
				{
					OFFSET 0.00000 -3.74821 0.00000
					CHANNELS 3 Zrotation Xrotation Yrotation
					JOINT RightToeBase
					{
						OFFSET 0.00000 0.00000 14.67920
						CHANNELS 3 Zrotation Xrotation Yrotation
						End site
						{
							OFFSET 0.00000 0.00000 10.36040
						}
					}
				}
			}
		}
	}
	JOINT LeftUpLeg
	{
		OFFSET 10.06560 0.00000 0.00000
		CHANNELS 3 Zrotation Xrotation Yrotation
		JOINT LeftLeg
		{
			OFFSET 0.00000 -42.98740 0.00000
			CHANNELS 3 Zrotation Xrotation Yrotation
			JOINT LeftFoot
			{
				OFFSET 0.00000 -44.62500 0.00000
				CHANNELS 3 Zrotation Xrotation Yrotation
				JOINT LeftForeFoot
				{
					OFFSET 0.00000 -3.74821 0.00000
					CHANNELS 3 Zrotation Xrotation Yrotation
					JOINT LeftToeBase
					{
						OFFSET 0.00000 0.00000 14.67920
						CHANNELS 3 Zrotation Xrotation Yrotation
						End site
						{
							OFFSET 0.00000 0.00000 10.67280
						}
					}
				}
			}
		}
	}
}
MOTION
Frames: 3
Frame Time: 0.016667
1.006853949441577356e-02 9.221269732953540199e+01 7.310827106084102134e+00 -1.291729877948361604e+01 1.274902549928124174e+01 -1.667364922953456698e+02 -9.534285758776171349e+00 9.576681335699380071e+00 -3.175312452806257346e-02 -2.219704060047779759e+00 6.234580047975949668e+00 9.349471258659682871e-01 -2.088599940439728631e+00 2.603341661085189607e+00 4.199474047237027885e-01 2.541903749433208848e+00 1.135498348766136978e+00 -1.063332002214611549e+00 -8.382881969654750742e-01 5.503176491054476038e+00 -1.891887664924155832e+00 -9.956552814953580910e-01 -5.240208944011566672e+00 -9.541595834264274600e+00 7.150087424939211012e-02 -1.921823582773561867e+01 -7.182740814724970502e-01 1.013405783630513781e+02 -1.741047357426012354e+01 3.321392719408009064e+00 5.902154900051819197e+01 -4.387252182605891448e+00 2.464264675953643291e+01 1.520488352941199217e+00 8.820145944304886143e+01 7.140011968268211717e+01 -7.393910276148406346e+00 -4.991698718430699344e+00 3.147321181336547357e-06 -3.348251864842603709e+01 3.127132945448122214e+01 1.892318743502996625e+01 8.485704362788618289e-18 -3.649616464991544496e-17 -3.189787262623185570e-15 2.166139598143054073e-17 1.624843498492707447e-15 4.532905015690015688e-18 -2.284858480533095459e+01 -9.984739788376748935e-16 6.122937772871081019e-15 3.190020306511367229e-15 -9.566111159483204738e-15 6.366875097534197441e-15 3.178148004277599587e-15 -9.568290428059019419e-15 6.375464035175415575e-15 -1.323959194430719322e+01 1.576235303843893388e-15 6.521059254506089098e-15 -3.480016929909182245e-17 9.493882221400241472e-15 1.556835931176632597e-15 -8.717606996990867143e-18 -3.182663619217057198e-15 3.525053676889141207e-17 1.082174289260786360e+01 1.368241691438384929e-15 5.292039719337516933e-15 -3.203136390794746280e-15 3.260142410288188361e-15 -9.559951216684289863e-15 -3.178581517770911592e-15 -3.152620475617442863e-15 4.784957663639760811e-15 5.309450484314243823e+01 1.892100384130517559e-15 4.566222401832478756e-15 6.375090631394301301e-15 -6.343667385909097972e-15 9.524856777404183486e-15 -1.747415566084959366e-17 3.171090984786609419e-15 3.196363377347775009e-15 -1.012891683864475567e+02 -1.454639410421955859e+01 -2.819567094363244930e+00 -6.015748408101682543e+01 -3.658008813413786697e+00 -1.218807853251053430e+01 -1.804901034050307089e+02 7.719919614966772770e+01 1.132182361939307782e+02 2.345902275570301043e+01 -5.664863830951384571e+00 6.195804156253415440e-05 4.255907122134487253e+01 4.151873144506792812e+01 -2.657702354641982367e+01 -6.332262611751710206e-15 3.173851465191623606e-15 1.272499957577743817e-14 -7.956364275391215642e-15 3.164789404899730263e-15 5.948642945769151437e-18 3.809816517256383861e+01 4.708244944300349066e-15 1.035292716161496838e-14 -3.193992446644420013e-15 -3.931785470694483918e-15 -1.431270880693806739e-17 1.618458545291740228e-15 4.786672369836603738e-15 9.973003116201749803e-18 2.270703460202265589e+01 3.721515757160125737e-15 4.608249080883555824e-15 6.337410689575932478e-15 -1.597630721454020096e-15 6.346112040597092485e-15 -6.334909500410013135e-15 -3.175779577031277962e-15 3.152907829377823616e-15 -1.282278908793280259e+01 5.425046650839441759e-15 -7.552368943937892157e-15 -3.167333658629899248e-17 -3.159485323507175838e-15 -3.141589105179454022e-15 6.377172386592137268e-15 -6.350575507765645323e-15 6.400373795727142415e-15 -5.953880070316715489e+01 1.492398874503749454e-14 -1.510609093577241072e-14 1.613876431280728655e-15 1.112731487778741109e-17 3.581729890494939955e-15 -1.591867612739535056e-15 1.304390223827724927e-17 2.796149265772256588e-15 -1.324266220870514488e+01 8.621064740949533345e-01 -8.317881203663770151e+00 -5.839666031754164877e-01 2.810448709537089584e+01 -3.341664724155131161e-01 -1.041889555739243356e+00 -1.989947019086552515e+01 -7.708067466060915862e+00 -1.403035865174714642e-17 1.807329058777530059e-16 2.016746006565875105e-16 -2.597059762479865986e-16 6.959185974464814350e+00 2.299920907824618178e-15 -1.124204023592835355e+01 9.988402544826916696e+00 1.273927490667026063e+01 2.537113149100733711e-01 1.713714947719080328e+01 -3.378267633802978231e-02 4.175997859682363256e+00 -8.107505672057659041e+00 -6.904395955837848042e+00 5.844299509757988485e-17 -1.617874230183842088e-15 -2.258909384745225903e-15 7.533046329003068625e-17 -3.398868129553785700e+00 -2.488093618025614773e-15
-4.437680804253925970e+00 9.227784414064129237e+01 8.495758942628700794e+00 -9.085904329839737059e+00 9.945338145081468184e+00 -1.582895104245334608e+02 -6.545868449184508719e+00 1.052336528982115027e+01 -5.528178040078214339e-01 -1.423903053195834989e+00 6.684292475240900977e+00 6.328181183960314149e-01 -8.218895401393756517e-01 2.142475096231883924e+00 4.508890915481172379e-01 2.470984323525455384e+00 1.450043155169445042e+00 -7.889182113381796313e-01 -3.917268573350935590e+00 1.102448795686544614e+01 2.265388606245753778e+00 -5.063712121399533750e+00 -1.714994350098705045e+00 -2.276711461902657163e+00 -5.184727330998060602e+00 -1.611785886029932868e+01 2.876344994957450441e-01 9.486758699913927728e+01 -1.574276161774917249e+01 1.381637597540480211e+00 8.152943641153603949e+01 5.010484733146211056e+01 -3.275347831886808336e+01 1.785556796663510397e+02 2.958850553794862748e+01 1.525085487258980379e+02 -9.584712026837678422e+00 3.584300945421391660e+00 -2.269777535255040977e-07 -4.189501539384411721e+00 3.717920594901388043e+00 -6.073805445320354934e-01 -1.561850763681887963e-15 3.224184176520374680e-15 -6.345456343034568277e-15 2.325693440063954830e-15 1.557128931592490782e-17 -1.617569360106931368e-15 -6.086831926521726110e+00 4.556910817926906650e-15 -3.250342746247879519e-15 1.573411708671976874e-15 3.108255441288470751e-15 3.095851059951534962e-15 2.361143897589119621e-15 2.722314515073583989e-17 1.642954275672724037e-15 4.961466783833863303e-01 3.628743054703370270e-15 -3.807918906050933078e-15 8.654280863435645168e-18 9.391750899654135326e-17 6.390836314334442198e-15 -3.139731845239957588e-15 -6.330973952775238385e-15 3.147948320444059380e-15 1.009737749003159912e+01 2.972987332551176468e-15 -3.433585248504419036e-15 6.341886232760152601e-15 -4.571587017416875158e-17 -6.344279077326292421e-15 -4.719174334236395791e-15 3.175958308514270759e-15 -6.344937359829564033e-15 3.764304737370407139e+01 5.034352873710871242e-16 -2.225437232633184012e-15 7.598729963990376298e-16 7.438528526257444549e-16 6.387519532619351294e-15 -4.242630653980767705e-16 -2.394019158008273684e-15 -1.055022671653009237e-16 -9.917471473411092120e+01 -1.245681092197629170e+01 -2.071023616928429067e+00 -6.979474072662348760e+01 9.496668033791763719e+00 3.317885488190625409e+01 -2.031841434803624225e+00 3.631715951865935210e+01 1.723469986452399638e+01 -1.209714735909259353e+01 -5.111460046565089677e+00 -5.792257199092340849e-06 5.412856523276723841e+00 7.254377951408311986e+00 -1.499383637370099720e+00 -1.500871381480749327e-17 -1.656175675310152314e-15 6.310408795248623854e-15 -4.513877219644148965e-17 -3.165879530784886789e-15 2.170588089413735273e-17 -5.998475256009443868e+00 -5.039771526523519936e-16 -3.738969798734117398e-15 7.824748239448078116e-17 5.285248647329665102e-17 -1.591687987398492931e-14 2.675194821484867863e-17 8.786293989199678233e-18 -1.591381150789927471e-14 -1.704261243417575855e+01 -5.397036771743570372e-16 -2.555526833320642250e-15 2.421753108174727119e-15 7.566403752245292749e-16 6.384796696699185620e-15 -8.861623296250247914e-16 -2.396228500236853281e-15 -3.112311082165385402e-15 -1.824826053234868439e+01 7.235633911978403673e-16 -1.732665580212080144e-15 1.662796800702868268e-15 -4.048121412206875793e-17 6.345678725748791932e-15 -1.659619035017267685e-15 3.502689493334329091e-18 6.339971876633192153e-15 -3.228065664961209791e+01 3.302884927826908337e-16 -1.307076993046231430e-15 1.571567858159492062e-15 -3.167796539317947463e-15 3.201532046117127825e-15 1.584849241916965768e-15 -6.309603724620892317e-15 -3.165149467234361212e-15 -1.630707850387403113e+01 -2.791380556808064739e+00 -7.467706771479779349e+00 -1.826169546106861663e-01 2.677263963037918515e+01 3.205138038177097748e-01 2.804712795093569078e+00 -1.790062530146865782e+01 -3.078711200060099795e+00 -6.170930326051957665e-16 3.887787314043649530e-16 2.744305926652460623e-15 -6.460398706467319993e-16 7.118905240085938502e+00 3.840788345469751030e-15 -8.856771255563852918e+00 1.665835277209864884e+01 2.388869618912787729e+01 2.644395121277787197e-03 9.269914453289782585e+00 -3.525412525969251476e-02 3.340127596422255429e-01 -8.110494260724216531e+00 -6.557373594349276580e+00 -5.158433534873321009e-16 8.323004196709431001e-16 -4.546502341738206089e-16 1.348187603991328190e-17 -2.243046432911719901e+00 3.475697559217254838e-16
1.701087500004366859e+01 9.090388336439430361e+01 7.467543268210278917e+00 -7.635235291103448674e+00 1.006572635315879261e+01 -1.652053580755511462e+02 -3.557978056418848567e+00 1.091210230064395326e+01 -1.851883848585767767e-01 -2.297025779330601036e+00 7.844032851215742674e+00 8.762309539827356497e-01 -1.386430113353204208e+00 2.614523594014290353e+00 1.387998409775599296e-01 2.147623050967362612e+00 1.746680048344791958e+00 -9.759230257800610708e-01 -6.215663342571303041e+00 1.474870566547729922e+01 5.081194570085637352e+00 -3.130180417699965467e+00 -3.432074325697770600e+00 4.520373528680123876e+00 -3.794081766998849581e+00 -1.783248700893141958e+01 6.233299421402932472e-01 1.010019070512045545e+02 -1.792029251592013139e+01 3.154869004753717565e+00 6.466614146512067407e+01 6.473813668091342066e+00 -3.109976722864168153e+01 -1.711666257749423714e+00 3.687797532805151235e+01 -1.867389327235289898e+01 1.461639482272219581e+01 -5.893113024896118546e+00 -5.161031644354617358e-06 -8.239279194842623610e-01 2.987860673934665812e+00 -6.989995451348871569e-01 -1.581511397141046674e-15 4.727710086148088090e-15 -9.509866751076775259e-15 -1.645136613829928140e-15 -6.208815946621201775e-17 4.226412909355037036e-19 1.050203529081014864e+01 -2.817706461752601656e-15 3.996829183333642620e-15 2.913533341379298270e-16 1.137728294667922678e-17 -6.341805257994174090e-15 1.129906569285701715e-15 -1.629920900839866189e-15 -9.543355888231124253e-15 2.107538731880707417e+01 -6.308260795007237731e-16 1.232678031914448690e-14 -2.307683998884079858e-15 -2.502869427912965811e-17 -6.305671313103770400e-15 1.593024823080895988e-15 -1.592713850040437303e-15 3.142173692671212461e-15 2.885152806604727260e+01 1.956274065858539601e-15 1.878066838122385719e-14 -1.614237466095134810e-15 3.186092771689430789e-15 4.215863236151224207e-17 -3.181156225833231269e-15 3.153095298690767746e-15 -3.208111446905854535e-15 5.212949718943114874e+01 1.274827823433616652e-14 2.549466967794344498e-14 7.919912252410491634e-15 -3.281822643474838873e-15 3.210703923832287828e-15 4.790724065716874124e-15 -6.398880383824487094e-15 -3.160476433585368362e-15 -9.758162482898556789e+01 -1.807192637810309321e+01 -2.383838712714382080e+00 -6.404285064046769094e+01 1.511729278241396912e+01 1.432308467188106604e+01 -6.165779594705576017e-01 5.017189041736263277e+01 -1.211302296810657886e+01 -7.300698672258731037e+00 3.129069996785902141e+00 -1.201837530176428400e-04 1.262000710710802309e+01 1.972562361405262266e+01 -7.837289609856753714e+00 6.339597983282949850e-15 -1.573512540631721923e-15 3.041604843952991737e-17 -1.681335960185390902e-17 -1.609783948323835229e-15 7.663842307471659270e-16 3.150118997825039457e+00 -9.800254794634443997e-15 2.445304038444522270e-15 -3.140782631572232964e-15 -3.184286154513322738e-15 -1.585291270343161138e-15 -6.376534127941272171e-15 -4.790330906275854438e-17 1.623924898577523722e-15 -1.068544064710835961e+01 -1.001818824456728604e-14 2.801851990006174412e-15 -1.961583358620118986e-17 9.500701375252331053e-15 -1.627054629960336701e-15 -3.187017191866135253e-15 9.627615855168604816e-15 7.896592731359462629e-16 -2.113807430680157395e+01 -9.490820282932539745e-15 3.128807800873900559e-15 2.496632360643881359e-16 -6.356907092140687583e-15 -3.144086825392533298e-16 -4.602573551796204643e-16 -6.377984524212389762e-15 4.852291218288242817e-16 -4.197570468975668234e+01 -4.889566315703692489e-15 2.023995314267921903e-15 -9.489432976708814236e-15 -1.330665509958055877e-16 -2.162252597152360346e-17 -9.532137774232421695e-15 7.617061383853598057e-17 1.456296673037661882e-17 3.700194258711697159e+00 1.109625337142454882e+01 -1.324816173798379637e+01 -1.990862662322003818e-01 1.154411387070508965e+01 -3.028270893472884140e-01 -8.817344460569799480e+00 -1.802320405503382617e+01 -1.500391421718363816e+01 6.131684365409038458e-16 -9.711673649027192931e-19 -2.879706117702763992e-15 3.334758216806836504e-16 1.557966969896644827e+01 1.295752656358126519e-15 5.986647067053926463e+00 -5.312878335307622102e+00 1.274698161325705925e+01 1.568442355130854615e-01 3.705327087997981295e+01 8.145247576221104069e-02 -4.499920552937788365e+00 -7.689318243351913829e+00 2.124614715523312825e+00 -1.319966130947711643e-16 2.952554762474643575e-17 -2.154914272771330054e-15 -3.100917709376082737e-16 -7.269166437387724500e+00 -1.040305029839442001e-15
